<svg xmlns="http://www.w3.org/2000/svg" width="24" height="24" fill="none" viewBox="0 0 24 24">
  <path fill="#fff" d="M10.95 17.05h2.1v-4h4v-2.1h-4v-4h-2.1v4h-4v2.1h4v4ZM12 22.2a10 10 0 0 1-3.988-.8 10.246 10.246 0 0 1-3.237-2.175A10.248 10.248 0 0 1 2.6 15.988 9.999 9.999 0 0 1 1.8 12c0-1.417.267-2.746.8-3.988a10.247 10.247 0 0 1 2.175-3.237A10.247 10.247 0 0 1 8.012 2.6 9.999 9.999 0 0 1 12 1.8c1.417 0 2.746.267 3.988.8a10.248 10.248 0 0 1 3.237 2.175A10.246 10.246 0 0 1 21.4 8.012 10 10 0 0 1 22.2 12a10 10 0 0 1-.8 3.988 10.247 10.247 0 0 1-2.175 3.237 10.247 10.247 0 0 1-3.237 2.175 10 10 0 0 1-3.988.8Zm0-2.275c2.217 0 4.092-.767 5.625-2.3 1.533-1.533 2.3-3.408 2.3-5.625s-.767-4.092-2.3-5.625c-1.533-1.533-3.408-2.3-5.625-2.3s-4.092.767-5.625 2.3c-1.533 1.533-2.3 3.408-2.3 5.625s.767 4.092 2.3 5.625c1.533 1.533 3.408 2.3 5.625 2.3Z"/>
</svg>
