<svg xmlns="http://www.w3.org/2000/svg" width="82" height="83" fill="none" viewBox="0 0 82 83">
  <g clip-path="url(#a)">
    <path fill="#fff" d="M9.23 33.576c0 .154.018.308.052.458a23.88 23.88 0 0 0-.052 1.596c0 13.98 25.312 21.851 25.312 21.851s25.313-7.872 25.313-21.855c0-.546-.018-1.079-.052-1.597.034-.148.051-.3.052-.453V2.55A2.054 2.054 0 0 0 57.805.5H11.28a2.054 2.054 0 0 0-2.05 2.05v31.026Zm15.61-1.67a7.134 7.134 0 0 1 1.766-4.691 9.622 9.622 0 0 1 2.662-2.12l.01-.004c.873-.453 1.803-.79 2.766-1h.008c.837-.18 1.69-.27 2.547-.268a9.477 9.477 0 0 0 1.57-.121 6.066 6.066 0 0 0 1.658-.531h.004a3.96 3.96 0 0 0 1.269-1.019v-.008a2.57 2.57 0 0 0 .608-1.545 2.607 2.607 0 0 0-1.45-2.197 7.207 7.207 0 0 0-3.703-.993 7.423 7.423 0 0 0-1.312.216l-.155.035a8.278 8.278 0 0 0-1.575.548 4.42 4.42 0 0 0-1.295.889 2.392 2.392 0 0 1-3.375-3.388 9.26 9.26 0 0 1 2.706-1.86 12.78 12.78 0 0 1 2.525-.863l.155-.035h.009V10.25a2.393 2.393 0 1 1 4.786 0v2.629c1.341.262 2.625.764 3.79 1.48a7.389 7.389 0 0 1 3.68 6.24 7.285 7.285 0 0 1-1.683 4.567 8.674 8.674 0 0 1-2.844 2.283c-.949.47-1.963.798-3.008.97-.781.13-1.573.194-2.365.19a7.281 7.281 0 0 0-1.532.156 6.341 6.341 0 0 0-1.562.561 4.867 4.867 0 0 0-1.295 1.036 2.384 2.384 0 0 0-.583 1.545c0 .535.156 1.247 1.338 2.011a7.294 7.294 0 0 0 3.777 1.049c.55-.027 1.098-.093 1.64-.199a7.973 7.973 0 0 0 1.527-.487 3.289 3.289 0 0 0 1.226-.941 2.392 2.392 0 1 1 3.617 3.133 7.992 7.992 0 0 1-3.065 2.249c-.8.34-1.635.596-2.49.76l-.172.03v2.697a2.391 2.391 0 0 1-4.782 0v-2.72a11.51 11.51 0 0 1-3.884-1.553 7.028 7.028 0 0 1-3.514-6.029Z"/>
    <path fill="#fff" d="M23.25 5.25h23.5v39h-23.5z"/>
  </g>
  <path fill="#02B875" d="M22.63 26.575c.415 0 .705-.304.94-.663.773-1.174 1.684-1.906 3.052-1.906 1.38 0 2.182.718 2.859 1.892.22.387.47.677.884.677.414 0 .677-.29.884-.663a4.034 4.034 0 0 1 2.127-1.782v11.684c0 1.078-.76 1.92-1.92 1.92-1.133 0-1.892-.856-1.892-1.92 0-.842-.525-1.325-1.188-1.325-.65 0-1.146.483-1.146 1.325 0 2.362 1.795 4.24 4.226 4.24 2.444 0 4.254-1.878 4.254-4.24V24.13a4.087 4.087 0 0 1 2.127 1.782c.207.373.455.663.884.663.414 0 .663-.29.884-.677.676-1.16 1.477-1.892 2.859-1.892 1.367 0 2.292.8 3.052 1.988.235.36.525.58.939.58.566 0 1.105-.455 1.105-1.201 0-4.93-3.73-11.767-11.85-12.375v-1.823c0-.732-.498-1.23-1.174-1.23-.663 0-1.16.498-1.16 1.23v1.823c-8.121.608-11.85 7.444-11.85 12.375 0 .746.524 1.201 1.104 1.201Z"/>
  <defs>
    <clipPath id="a">
      <path fill="#fff" d="M0 0h82v82H0z" transform="matrix(-1 0 0 1 82 .5)"/>
    </clipPath>
  </defs>
</svg>
