<svg version="1.2" xmlns="http://www.w3.org/2000/svg" viewBox="0 0 82 83" width="82" height="83">
	<title>awb_logo-svg</title>
	<defs>
		<clipPath clipPathUnits="userSpaceOnUse" id="cp1">
			<path d="m82 0.5h-82v82h82z"/>
		</clipPath>
	</defs>
	<style>
		.s0 { fill: #ffffff } 
		.s1 { fill: #2e4153 } 
	</style>
	<g id="Clip-Path" clip-path="url(#cp1)">
		<g id="Layer">
			<path id="Layer" fill-rule="evenodd" class="s0" d="m9.2 2.6q0-0.5 0.2-0.8 0.1-0.4 0.4-0.7 0.3-0.3 0.7-0.4 0.4-0.2 0.8-0.2h46.5q0.4 0 0.8 0.2 0.4 0.1 0.7 0.4 0.2 0.3 0.4 0.7 0.2 0.3 0.2 0.7v31.1q0 0.2-0.1 0.4 0.1 0.8 0.1 1.6c0 14-25.4 21.9-25.4 21.9 0 0-25.3-7.9-25.3-21.9q0-0.2 0-0.4 0-0.2 0-0.4 0-0.2 0.1-0.4 0-0.2 0-0.4-0.1-0.2-0.1-0.4zm15.9 31.1q0.2 0.9 0.7 1.7 0.5 0.8 1.1 1.5 0.7 0.6 1.5 1.1 0.4 0.2 0.9 0.5 0.4 0.2 0.9 0.4 0.5 0.2 1 0.4 0.5 0.1 1 0.2v2.7c0 0.7 0.3 1.3 0.7 1.7 0.5 0.5 1.1 0.7 1.7 0.7 0.7 0 1.3-0.2 1.7-0.7 0.5-0.4 0.7-1 0.7-1.7v-2.7h0.2q1.3-0.2 2.5-0.8 0.4-0.1 0.8-0.4 0.5-0.2 0.9-0.5 0.3-0.3 0.7-0.6 0.3-0.3 0.6-0.7c0.5-0.5 0.7-1.1 0.6-1.7 0-0.7-0.3-1.3-0.8-1.7-0.5-0.4-1.1-0.6-1.7-0.6-0.7 0.1-1.3 0.4-1.7 0.9q-0.1 0.1-0.2 0.3-0.2 0.1-0.3 0.2-0.2 0.1-0.3 0.2-0.2 0.1-0.4 0.2-0.2 0.1-0.4 0.2-0.2 0-0.3 0.1-0.2 0-0.4 0.1-0.2 0.1-0.4 0.1-0.8 0.2-1.7 0.2-0.5 0-1-0.1-0.4 0-0.9-0.2-0.5-0.1-1-0.3-0.4-0.2-0.8-0.5c-1.2-0.7-1.4-1.4-1.4-2q0-0.2 0.1-0.4 0-0.2 0.1-0.4 0.1-0.2 0.2-0.4 0.1-0.2 0.2-0.3 0.1-0.2 0.3-0.3 0.1-0.2 0.3-0.3 0.2-0.1 0.3-0.2 0.2-0.1 0.4-0.2 0.2-0.1 0.4-0.2 0.2-0.1 0.4-0.2 0.2-0.1 0.4-0.1 0.2-0.1 0.4-0.1 0.2 0 0.3-0.1 0.2 0 0.4 0 0.2 0 0.4-0.1 0.2 0 0.4 0 1.2 0 2.4-0.2 1.5-0.2 3-0.9 0.4-0.2 0.8-0.5 0.4-0.2 0.7-0.5 0.4-0.3 0.7-0.6 0.3-0.4 0.6-0.7 0.4-0.5 0.7-1 0.3-0.6 0.5-1.1 0.3-0.6 0.4-1.2 0.1-0.7 0.1-1.3 0-0.9-0.3-1.8-0.2-1-0.7-1.8-0.5-0.8-1.2-1.5-0.7-0.6-1.5-1.1c-1.2-0.7-2.4-1.2-3.8-1.5v-2.6c0-0.7-0.2-1.3-0.7-1.7-0.4-0.5-1-0.7-1.7-0.7-0.6 0-1.2 0.2-1.7 0.7-0.4 0.4-0.7 1-0.7 1.7v2.7h-0.1q-0.4 0.1-0.7 0.2-0.3 0.1-0.6 0.2-0.3 0.1-0.6 0.2-0.3 0.1-0.7 0.3-0.3 0.1-0.7 0.3-0.3 0.3-0.7 0.5-0.3 0.2-0.6 0.5-0.4 0.2-0.7 0.5c-0.4 0.5-0.6 1.1-0.6 1.7 0 0.6 0.2 1.2 0.7 1.7 0.4 0.4 1 0.7 1.6 0.7 0.7 0 1.3-0.2 1.7-0.7q0.2-0.1 0.3-0.2 0.2-0.2 0.3-0.3 0.2-0.1 0.4-0.2 0.1-0.1 0.3-0.2 0.2-0.1 0.4-0.1 0.2-0.1 0.4-0.2 0.2 0 0.4-0.1 0.2-0.1 0.4-0.1h0.1q0.2-0.1 0.4-0.1 0.1-0.1 0.3-0.1 0.2 0 0.3 0 0.2-0.1 0.4-0.1 0.4 0 0.9 0.1 0.5 0.1 1 0.2 0.4 0.1 0.9 0.3 0.4 0.2 0.9 0.4 0.3 0.2 0.5 0.4 0.3 0.2 0.5 0.5 0.2 0.3 0.3 0.6 0.1 0.4 0.1 0.7 0 0.2 0 0.4-0.1 0.3-0.2 0.4 0 0.2-0.2 0.4-0.1 0.2-0.2 0.4-0.1 0.1-0.3 0.3-0.1 0.1-0.3 0.3-0.1 0.1-0.3 0.2-0.2 0.1-0.4 0.2-0.2 0.1-0.4 0.2-0.2 0.1-0.4 0.1-0.2 0.1-0.4 0.1-0.2 0.1-0.4 0.1-0.2 0.1-0.4 0.1-0.2 0-0.4 0-0.2 0-0.4 0-0.2 0.1-0.4 0-1.3 0-2.5 0.3h-0.1q-1.4 0.3-2.7 1-0.4 0.2-0.8 0.5-0.3 0.2-0.7 0.5-0.3 0.2-0.6 0.5-0.3 0.3-0.6 0.6-0.4 0.5-0.7 1.1-0.4 0.5-0.6 1.1-0.2 0.6-0.3 1.3-0.2 0.6-0.2 1.2 0 1 0.3 1.8z"/>
			<path id="Layer" class="s0" d="m23.3 5.3h23.4l0.1 39h-23.6z"/>
		</g>
	</g>
	<path id="Layer" class="s1" d="m22.6 26.6c0.4 0 0.7-0.3 1-0.7 0.7-1.2 1.7-1.9 3-1.9 1.4 0 2.2 0.7 2.9 1.9 0.2 0.4 0.5 0.7 0.9 0.7 0.4 0 0.6-0.3 0.8-0.7q0.2-0.3 0.5-0.6 0.2-0.2 0.5-0.5 0.2-0.2 0.5-0.4 0.3-0.1 0.7-0.3v11.7c0 1.1-0.8 1.9-1.9 1.9-1.2 0-1.9-0.8-1.9-1.9 0-0.8-0.6-1.3-1.2-1.3-0.7 0-1.2 0.5-1.2 1.3 0 2.4 1.8 4.3 4.3 4.3 2.4 0 4.2-1.9 4.2-4.3v-11.7q0.3 0.2 0.7 0.3 0.3 0.2 0.5 0.4 0.3 0.3 0.5 0.5 0.3 0.3 0.4 0.6c0.2 0.4 0.5 0.7 0.9 0.7 0.4 0 0.7-0.3 0.9-0.7 0.7-1.2 1.5-1.9 2.9-1.9 1.3 0 2.3 0.8 3 2 0.3 0.4 0.5 0.6 1 0.6 0.5 0 1.1-0.5 1.1-1.2 0-5-3.8-11.8-11.9-12.4v-1.8c0-0.8-0.5-1.3-1.2-1.3-0.6 0-1.1 0.5-1.1 1.3v1.8c-8.1 0.6-11.9 7.4-11.9 12.4 0 0.7 0.6 1.2 1.1 1.2z"/>
</svg>