<svg xmlns="http://www.w3.org/2000/svg" width="24" height="25" fill="none" viewBox="0 0 24 25">
  <path fill="#6F7C87" d="M4.075 20.7c-.633 0-1.171-.22-1.613-.662a2.197 2.197 0 0 1-.662-1.613V6.575c0-.633.22-1.171.662-1.613.442-.441.98-.662 1.613-.662H8.85v2.275H4.075v11.85h15.85V6.575H15.15V4.3h4.775c.633 0 1.171.22 1.613.662.441.442.662.98.662 1.613v11.85c0 .633-.22 1.171-.662 1.613-.442.441-.98.662-1.613.662H4.075ZM12 16.1l-5.2-5.2 1.6-1.575 2.45 2.45V4.3h2.3v7.475l2.45-2.45 1.6 1.575-5.2 5.2Z"/>
</svg>
