<svg version="1.2" xmlns="http://www.w3.org/2000/svg" viewBox="0 0 1100 552" >
	<title>Insurance CRM Hero image (1)-svg</title>
	<style>
		.s0 { fill: #ffffff;stroke: #2c3e50 } 
		.s1 { fill: #2e4153;stroke: #2c3e50 } 
		.s2 { fill: none;stroke: #ffffff;stroke-width: 3 } 
		.s3 { fill: none } 
		.s4 { fill: none;stroke: #2c3e50 } 
		.s5 { fill: #ffffff;stroke: #ffffff;stroke-width: 3 } 
		.s6 { fill: #405261 } 
		.s7 { fill: #fafafa } 
		.s8 { fill: #2c3e50 } 
		.s9 { fill: #ffffff } 
		.s10 { fill: #263238 } 
		.s11 { fill: #fafafa;stroke: #2c3e50 } 
		.s12 { fill: none;stroke: #4e585d;stroke-width: .4 } 
		.s13 { fill: #ffffff;stroke: #405261 } 
		.s14 { fill: #f4f5f7 } 
		.s15 { fill: none;stroke: #2c3e50;stroke-width: .8 } 
		.s16 { fill: #989a9a } 
		.s17 { fill: #c1c2c2 } 
		.s18 { fill: none;stroke: #000000;stroke-width: .5 } 
		.s19 { fill: #2e4153 } 
		.s20 { fill: none;stroke: #2a3655 } 
		.s21 { fill: none;stroke: #ffffff } 
	</style>
	<g id="Layer">
		<g id="Layer">
			<g id="Layer">
				<g id="Layer">
					<path id="Layer" class="s0" d="m281.5 257.2h128.5v135.1h-128.5z"/>
				</g>
				<g id="Layer">
					<path id="Layer" class="s1" d="m281.5 268.5h141.8l-22.5-75.1h-119.3z"/>
				</g>
				<g id="Layer">
					<path id="Layer" class="s2" d="m410.2 299.4h-32.8"/>
					<path id="Layer" class="s2" d="m410.2 323.5h-32.8"/>
					<path id="Layer" class="s2" d="m410.2 347.6h-32.8"/>
				</g>
			</g>
			<path id="Layer" class="s2" d="m410.2 371.7h-32.8"/>
		</g>
		<g id="Layer">
			<g id="Layer">
				<path id="Layer" class="s0" d="m34.1 242.5h295.8v149.8h-295.8z"/>
			</g>
			<g id="Layer">
				<path id="Layer" class="s1" d="m75.1 273.5h48.2v91.8h-48.2z"/>
			</g>
			<g id="Layer">
				<path id="Layer" class="s3" d="m170.9 273.8h112.4v49.1h-112.4z"/>
				<path id="Layer" class="s4" d="m170.9 273.8h112.4v49.1h-112.4z"/>
				<path id="Layer" class="s5" d="m285.9 273.8h16.3v49.1h-16.3z"/>
				<path id="Layer" class="s4" d="m228.4 274.4v48.2"/>
			</g>
			<g id="Layer">
				<g id="Layer">
					<path id="Layer" class="s0" d="m343.3 234.2h-322.5l165.9-130.2z"/>
				</g>
				<path id="Layer" class="s0" d="m20.8 234.2h322.8v8.3h-322.8z"/>
			</g>
		</g>
	</g>
	<g id="Layer">
		<g id="Layer">
			<g id="Layer">
				<g id="Layer">
					<g id="Layer">
						<g id="Layer">
							<g id="Layer">
								<g id="Layer">
									<g id="Layer">
										<path id="Layer" class="s6" d="m268.2 461.7c-22 0.6-40.3-17.2-40.9-39.8-0.6-22.6 16.6-41.3 38.6-42 22-0.6 40.2 17.2 40.9 39.8 0.6 22.6-16.6 41.3-38.6 42z"/>
									</g>
								</g>
							</g>
						</g>
					</g>
				</g>
				<g id="Layer">
					<g id="Layer">
						<g id="Layer">
							<g id="Layer">
								<g id="Layer">
									<g id="Layer">
										<path id="Layer" class="s7" d="m267 449.5c-15.4 0-27.9-12.8-27.9-28.7 0-15.9 12.5-28.7 27.9-28.7 15.5 0 28 12.8 28 28.7 0 15.9-12.5 28.7-28 28.7z"/>
									</g>
								</g>
							</g>
						</g>
					</g>
				</g>
				<g id="Layer">
					<g id="Layer">
						<g id="Layer">
							<g id="Layer">
								<g id="Layer">
									<g id="Layer">
										<path id="Layer" class="s6" d="m267 438.3c-9.4 0-17-7.8-17-17.5 0-9.7 7.6-17.5 17-17.5 9.5 0 17.1 7.8 17.1 17.5 0 9.7-7.6 17.5-17.1 17.5z"/>
									</g>
								</g>
							</g>
						</g>
					</g>
				</g>
			</g>
			<g id="Layer">
				<g id="Layer">
					<g id="Layer">
						<g id="Layer">
							<g id="Layer">
								<g id="Layer">
									<g id="Layer">
										<path id="Layer" class="s6" d="m572.3 461.9c-22 0.6-40.3-17.1-40.9-39.7-0.7-22.6 16.6-41.4 38.6-42 21.9-0.7 40.2 17.1 40.9 39.7 0.6 22.6-16.6 41.4-38.6 42z"/>
									</g>
								</g>
							</g>
						</g>
					</g>
				</g>
				<g id="Layer">
					<g id="Layer">
						<g id="Layer">
							<g id="Layer">
								<g id="Layer">
									<g id="Layer">
										<path id="Layer" class="s7" d="m571.1 449.7c-15.4 0-27.9-12.8-27.9-28.7 0-15.8 12.5-28.7 27.9-28.7 15.5 0 27.9 12.9 27.9 28.7 0 15.9-12.4 28.7-27.9 28.7z"/>
									</g>
								</g>
							</g>
						</g>
					</g>
				</g>
				<g id="Layer">
					<g id="Layer">
						<g id="Layer">
							<g id="Layer">
								<g id="Layer">
									<g id="Layer">
										<path id="Layer" class="s8" d="m571.1 438.5c-9.4 0-17-7.8-17-17.5 0-9.6 7.6-17.5 17-17.5 9.4 0 17 7.9 17 17.5 0 9.7-7.6 17.5-17 17.5z"/>
									</g>
								</g>
							</g>
						</g>
					</g>
				</g>
			</g>
			<g id="Layer">
				<g id="Layer">
					<path id="Layer" class="s0" d="m319.2 323.4c0 0-58.6 4.7-80.3 10-15.3 3.7-44.8 10.2-44.4 30.3l2.3 14.5c0 0-10.9 5.4-10.9 19.2 0 13.9-2.7 35.3 22.8 36.2 4.3 0.1 12.2 0 12.2 0 0 0-4.9-59 45.1-60.8 50.9-1.7 47.5 60.3 47.5 60.3h212.1c0 0-8.7-60.4 46-60.5 54.7-0.1 46.4 60.9 46.4 60.9 0 0 20.2 1.9 29.5-16.5 9.4-18.4 7-31.5 7-31.5l-0.4-11.6c-0.1-3.9-3-7.1-6.6-7.3 0 0 3.6-29.2-2-34.3-5.6-5-36.3-35.5-36.3-35.5l1.4-1c2.5-1.7 2.1-5.7-0.7-6.7-11.7-4.4-34.7-13-40.2-15.1q-1.2-0.5-2.5-0.6c-3.2-0.2-12.4-0.9-29.2-1.1-20.5-0.2-102 0-102 0 0 0-28 2.5-43.6 10-16.4 7.8-73.2 41.1-73.2 41.1z"/>
				</g>
			</g>
			<g id="Layer">
				<g id="Layer">
					<g id="Layer">
						<path id="Layer" class="s6" d="m200.7 395.8c-2.1-0.4-5.4-0.5-7 1.1-1.2 1.1-1.5 3-1.7 4.8-0.2 2.3-0.4 4.8 0.2 7.1 0.5 2.3 1.7 4.6 3.7 5.7 1.9 1.2 4.6 1 6.1-0.8 1.4-1.6 1.5-4 1.5-6.2 0-3.1 0.2-5.7-0.3-8.8-0.1-0.6-0.4-1.3-0.8-1.8-0.5-0.7-1-1-1.7-1.1z"/>
					</g>
				</g>
			</g>
			<g id="Layer">
				<g id="Layer">
					<path id="Layer" class="s6" d="m196.8 378.2c6.2 0 12.3-0.4 18.5-0.9 0.6 0 1.4-0.1 1.9-0.6 0.6-0.6 0.6-1.6 0.6-2.4 0-3.6-0.1-7.8-2.6-10.1-1.6-1.5-3.7-1.9-5.7-2.1-5-0.5-10.3-0.1-15 1.6z"/>
				</g>
			</g>
			<g id="Layer">
				<g id="Layer">
					<g id="Layer">
						<path id="Layer" class="s9" d="m325.9 431.2q0 0 0-0.5-0.1-0.6-0.1-1.7-0.2-2.3-0.4-6.6c-0.1-2.8-0.3-6.2-0.7-10.2-0.3-4-0.9-8.6-2.2-13.5-1.2-4.8-3.1-10-5.9-15.1-2.9-5-6.6-10.1-11.6-14-10-7.8-23.6-12.1-37.8-12.3-14.2-0.2-27.7 4.7-37.5 12.8-4.9 4-9 8.6-12.1 13.5-3.2 4.8-5.5 9.8-7.2 14.5-1.6 4.8-2.5 9.3-3 13.2-0.5 4-0.4 7.5-0.3 10.3 0.2 2.8 0.4 5 0.7 6.5q0.2 1.1 0.3 1.7 0.1 0.5 0.1 0.5 0 0-0.2-0.5-0.1-0.6-0.3-1.7c-0.3-1.5-0.5-3.6-0.8-6.5-0.1-2.8-0.2-6.3 0.3-10.3 0.5-4 1.4-8.5 3-13.3 1.6-4.7 3.9-9.7 7.1-14.6 3.2-4.9 7.3-9.6 12.2-13.6 9.9-8.2 23.4-13.1 37.7-12.9 14.3 0.2 27.9 4.6 38 12.4 5 3.9 8.8 9 11.6 14.1 2.9 5.2 4.8 10.4 6 15.3 1.2 4.9 1.8 9.4 2.1 13.5 0.4 4 0.6 7.4 0.7 10.3q0.1 4.2 0.2 6.5 0.1 1.1 0.1 1.7 0 0.5 0 0.5z"/>
					</g>
				</g>
			</g>
			<g id="Layer">
				<g id="Layer">
					<g id="Layer">
						<path id="Layer" class="s10" d="m328.2 432.2q0 0-0.1-0.5 0-0.4 0-1.4-0.1-1.9-0.2-5.6c-0.1-4.9-0.3-12-0.5-21.1-0.3-9.1-0.5-20.2-0.9-32.9q-0.1-4.7-0.2-9.8c-0.1-1.7 0.1-3.4 0.2-5.1q0.2-1.3 0.3-2.6 0.3-1.3 0.5-2.6c0.8-3.5 1.9-7 3.3-10.4 1.5-3.3 3.3-6.7 5.5-9.8 11.4-7.8 23.7-16.2 36.8-25.2q4.9-3.3 9.9-6.7c3.3-2.5 6.8-4.5 10.5-6.4q5.5-2.8 11.4-5c1.9-0.7 4-1.3 5.9-2 2.1-0.5 4.1-1.1 6.1-1.6 8-1.9 15.9-2.8 23.7-3.2 7.8-0.4 15.5-0.4 22.9 0.1h0.3l-0.1 0.2c-3.5 17.1-6.8 33.2-9.8 48h-0.1c-1.8 3.3-3.3 6.8-4.4 10.3-1.1 3.5-1.7 7.1-1.5 10.7 0.3 3.5 0.3 7 0.4 10.3q0.1 5.1 0.2 9.8c0.2 12.7 0.2 23.7 0.3 32.9 0 9.1 0 16.2 0 21.1q0 3.7 0 5.6-0.1 0.9-0.1 1.4 0 0.5 0 0.5 0 0 0-0.5 0-0.5 0-1.4 0-1.9 0-5.6c-0.1-4.9-0.1-12-0.1-21.1-0.1-9.1-0.2-20.2-0.4-32.9q-0.1-4.7-0.2-9.8c-0.1-3.3-0.1-6.8-0.4-10.3-0.3-3.6 0.4-7.3 1.5-10.8 1.1-3.6 2.6-7 4.4-10.4v0.1c3.1-14.8 6.4-30.9 9.9-48l0.1 0.2c-7.4-0.4-15.1-0.4-22.8 0-7.8 0.4-15.8 1.3-23.7 3.2-2 0.5-4 1.1-6 1.6-2 0.7-4 1.3-6 2q-5.8 2.1-11.3 4.9c-3.7 1.9-7.2 4-10.5 6.4q-5 3.4-9.9 6.8c-13.1 8.9-25.4 17.3-36.8 25.1v-0.1c-2.2 3.1-3.9 6.4-5.4 9.8-1.4 3.3-2.5 6.8-3.3 10.2-1.6 6.9-0.8 13.8-0.8 20.1 0.3 12.7 0.6 23.7 0.8 32.8 0.2 9.1 0.3 16.3 0.4 21.2q0.1 3.7 0.1 5.6 0.1 0.9 0.1 1.4 0 0.5 0 0.5z"/>
					</g>
				</g>
			</g>
			<g id="Layer">
				<g id="Layer">
					<g id="Layer">
						<path id="Layer" class="s10" d="m463.1 281.7q0 0 0.3 0 0.4 0 1.1 0 1.3-0.1 3.9-0.1c3.5-0.1 8.4-0.2 14.6-0.3 12.5-0.3 29.8-0.6 49.4-1h0.1v0.1c2.3 3 4.6 6.1 6.9 9.2 7.1 9.3 13.7 18.2 19.8 26.3q1.1 1.5 2.2 3 1.1 1.5 1.9 3.2c1 2.3 1.5 4.7 1.5 7 0 2.4-0.5 4.6-1.2 6.6q-1.2 3-2.3 5.7c-2.9 7.2-5.2 13.1-6.8 17.2q-1.2 3-1.9 4.6-0.3 0.8-0.5 1.2-0.1 0.4-0.2 0.4 0 0 0.2-0.4 0.2-0.4 0.5-1.2 0.6-1.7 1.8-4.7c1.5-4.1 3.8-10 6.7-17.2 1.2-3.7 3.5-7.5 3.3-12.2 0-2.3-0.5-4.6-1.4-6.8q-0.8-1.7-1.8-3.2-1.1-1.5-2.3-3c-6.1-8-12.7-16.9-19.8-26.2-2.3-3.2-4.6-6.3-6.9-9.2l0.2 0.1c-19.6 0.3-36.9 0.5-49.4 0.7-6.2 0.1-11.1 0.2-14.6 0.2q-2.6 0-4 0-0.6 0-1 0-0.3 0.1-0.3 0z"/>
					</g>
				</g>
			</g>
			<g id="Layer">
				<g id="Layer">
					<g id="Layer">
						<path id="Layer" class="s10" d="m438.2 353c0 0 0.2 0 0.6-0.1 0.4-0.1 0.9-0.3 1.5-0.7 0.6-0.4 1.3-1.2 1.6-2.2q0.3-0.8 0.2-1.8c0-0.6-0.1-1.3-0.4-1.9-0.6-1.3-1.9-2.3-3.5-2.3q-2.3 0-5 0c-3.5 0-7.4 0-11.5 0-0.9 0-1.9 0.4-2.6 1.2-0.7 0.6-1.1 1.6-1.2 2.6-0.1 1 0 2 0.5 2.8 0.4 0.9 1.1 1.5 1.9 1.9 0.8 0.3 1.6 0.3 2.4 0.3q1.3 0 2.5 0 2.3 0 4.3 0c2.7 0.1 4.8 0.1 6.4 0.1q1 0 1.7 0 0.6 0.1 0.6 0.1 0 0-0.6 0-0.7 0-1.7 0.1c-1.6 0-3.7 0-6.4 0q-2 0-4.3 0.1-1.2 0-2.5 0c-0.4 0-0.8 0-1.2 0q-0.7-0.1-1.4-0.4c-0.8-0.4-1.6-1-2.1-2-0.4-0.9-0.6-2-0.5-3.1 0.1-1.1 0.6-2.1 1.4-2.9 0.7-0.7 1.8-1.2 2.8-1.2 4.1 0 8 0 11.5 0q2.7 0.1 5.1 0.1c1.6 0 3 1.1 3.6 2.4 0.3 0.7 0.5 1.4 0.5 2.1 0 0.6-0.1 1.3-0.3 1.8-0.3 1.2-1 1.9-1.7 2.4-0.6 0.4-1.2 0.5-1.6 0.6-0.4 0-0.6 0-0.6 0z"/>
					</g>
				</g>
			</g>
			<g id="Layer">
				<g id="Layer">
					<g id="Layer">
						<path id="Layer" class="s10" d="m548.1 353c0 0 0.2 0 0.6-0.1 0.4-0.1 1-0.3 1.6-0.7 0.6-0.4 1.2-1.2 1.6-2.2q0.2-0.8 0.2-1.8c0-0.6-0.2-1.3-0.5-1.9-0.6-1.3-1.9-2.3-3.4-2.3q-2.4 0-5 0c-3.5 0-7.4 0-11.5 0-1 0-1.9 0.4-2.6 1.2-0.7 0.6-1.2 1.6-1.3 2.6 0 1 0.1 2 0.5 2.8 0.4 0.9 1.1 1.5 1.9 1.9 0.8 0.3 1.6 0.3 2.5 0.3q1.2 0 2.4 0 2.4 0 4.4 0c2.6 0.1 4.8 0.1 6.3 0.1q1.1 0 1.7 0 0.6 0.1 0.6 0.1 0 0-0.6 0-0.6 0-1.7 0.1c-1.5 0-3.7 0-6.3 0q-2 0-4.4 0.1-1.2 0-2.4 0c-0.4 0-0.8 0-1.3 0q-0.7-0.1-1.3-0.4c-0.9-0.4-1.6-1-2.1-2-0.5-0.9-0.6-2-0.5-3.1 0.1-1.1 0.6-2.1 1.3-2.9 0.8-0.7 1.8-1.2 2.9-1.2 4.1 0 7.9 0 11.5 0q2.6 0.1 5 0.1c1.7 0 3 1.1 3.7 2.4 0.3 0.7 0.4 1.4 0.4 2.1 0 0.6 0 1.3-0.2 1.8-0.4 1.2-1.1 1.9-1.7 2.4-0.7 0.4-1.3 0.5-1.7 0.6-0.4 0-0.6 0-0.6 0z"/>
					</g>
				</g>
			</g>
			<g id="Layer">
				<g id="Layer">
					<path id="Layer" class="s11" d="m644.6 333.5h-22c-3 0-5.8 1.8-7.2 4.7-1.2 2.4-1.3 5.2-0.3 7.7l8.7 21.2 22-0.2c0 0 4.7-27-1.2-33.4z"/>
				</g>
			</g>
			<g id="Layer">
				<g id="Layer">
					<path id="Layer" class="s6" d="m339 330.5l113.5-2.3 73.9-1.5 24.4-15.2c1.9-1.3 2.5-4.1 1.1-6.1l-15.2-21.6c-1.6-2.3-4-3.6-6.6-3.6l-82.7-0.7c0 0-31.1-2-55.6 12.9-25.8 15.7-52.8 38.1-52.8 38.1z"/>
				</g>
			</g>
			<g id="Layer">
				<g id="Layer">
					<path id="Layer" class="s0" d="m391 281.7c0 0 5.7 2.8 2 5.4-3.7 2.6-61.2 42-61.2 42l-13.2-6.5c23.4-14.2 47.1-27.9 72.4-40.9z"/>
				</g>
			</g>
			<g id="Layer">
				<g id="Layer">
					<g id="Layer">
						<path id="Layer" class="s10" d="m333.7 330.1q0 0-0.4 0.1-0.4 0.1-1 0.2-1.5 0.4-4.1 0.9c-3.5 0.8-8.6 1.9-14.9 3-12.6 2.4-30.1 5.1-49.5 7-4.9 0.4-9.7 0.8-14.3 1.1-4.5 0.4-9 0.7-13.2 1.1-8.4 0.8-15.9 2.1-22.1 4.1-6.1 1.9-10.8 4.4-13.9 6.3-1.6 0.9-2.7 1.8-3.5 2.3q-0.6 0.4-0.9 0.6-0.3 0.2-0.3 0.2 0 0 0.3-0.2 0.3-0.2 0.9-0.7c0.8-0.5 1.9-1.4 3.4-2.4 3.1-2 7.8-4.5 14-6.4 6.1-2 13.7-3.4 22.1-4.2 4.2-0.4 8.6-0.8 13.2-1.1q6.9-0.5 14.2-1.2c19.5-1.8 37-4.5 49.6-6.8 6.3-1.1 11.4-2.1 14.9-2.8q2.6-0.6 4.1-0.9 0.6-0.1 1-0.2 0.3 0 0.4 0z"/>
					</g>
				</g>
			</g>
			<g id="Layer">
				<g id="Layer">
					<g id="Layer">
						<path id="Layer" class="s10" d="m653.4 385.3c0 0.1-7.6 0.2-16.9 0.2-9.4 0-16.9-0.1-16.9-0.2 0-0.1 7.5-0.2 16.9-0.2 9.3 0 16.9 0.1 16.9 0.2z"/>
					</g>
				</g>
			</g>
			<g id="Layer">
				<g id="Layer">
					<g id="Layer">
						<path id="Layer" class="s10" d="m514.9 406.2c0 0.2-42.7 0.3-95.4 0.3-52.6 0-95.3-0.1-95.3-0.3 0-0.1 42.7-0.2 95.3-0.2 52.7 0 95.4 0.1 95.4 0.2z"/>
					</g>
				</g>
			</g>
			<g id="Layer">
				<g id="Layer">
					<g id="Layer">
						<path id="Layer" class="s10" d="m215.9 386c0 0.1-6.1 0.2-13.5 0.2-7.5 0-13.5-0.1-13.5-0.2 0-0.1 6-0.2 13.5-0.2 7.4 0 13.5 0.1 13.5 0.2z"/>
					</g>
				</g>
			</g>
			<g id="Layer">
				<g id="Layer">
					<path id="Layer" class="s0" d="m608.6 295.9c0 0-5.1 6.2-3.1 10.7 2 4.5 22.6 20.4 22.6 20.4l14.9 3z"/>
				</g>
			</g>
			<g id="Layer">
				<g id="Layer">
					<path id="Layer" class="s0" d="m466.5 284.9l-3.4 39.4 60.1-1.9 24.3-15.3-15.7-22.2z"/>
				</g>
			</g>
			<g id="Layer">
				<g id="Layer">
					<path id="Layer" class="s0" d="m353.2 326.3c0 0 36.3-28.4 50.7-34.1 13.8-5.4 21-6.8 33.9-7.2 12.5-0.4 20 0 20 0l-9.6 40z"/>
				</g>
			</g>
			<g id="Layer">
				<g id="Layer">
					<g id="Layer">
						<path id="Layer" class="s0" d="m347.9 326.5c0-2.5 1.3-4.8 3.3-6.1l8.3-5c2.4-1.5 5.1-2.3 7.8-2.3 1.7 0 3.4 0.3 4.9 0.9 3.6 1.3 6 4.9 6.1 9 0.2 5.7-4 10.4-9.2 10.4h-14.8c-3.5 0-6.4-3.1-6.4-6.9z"/>
					</g>
				</g>
				<g id="Layer">
					<g id="Layer">
						<g id="Layer">
							<path id="Layer" class="s10" d="m347.9 326.5c0.1 0 0.1 0.3 0.1 0.8 0.1 0.6 0.3 1.4 0.8 2.4 0.4 0.9 1.3 2 2.5 2.7 0.6 0.4 1.4 0.7 2.2 0.8 0.7 0.1 1.6 0 2.5 0 3.7 0 8 0 12.7 0 1.2 0 2.4-0.2 3.6-0.7 1.1-0.4 2.2-1.2 3.1-2.1 0.9-1 1.7-2.2 2.1-3.5 0.5-1.4 0.7-2.8 0.6-4.3-0.2-2.9-1.7-5.6-3.8-7.2-1-0.8-2.2-1.3-3.4-1.6q-1.8-0.5-3.6-0.5c-2.4 0-4.6 0.6-6.5 1.6-1 0.4-1.9 1-2.7 1.5q-1.3 0.8-2.5 1.5-2.4 1.4-4.3 2.6c-1.2 0.7-2.1 1.8-2.5 2.7-0.5 1-0.7 1.8-0.8 2.4 0 0.5 0 0.9-0.1 0.9 0 0 0-0.4 0.1-0.9 0-0.6 0.2-1.5 0.6-2.5 0.5-0.9 1.3-2.1 2.6-2.8q1.9-1.2 4.3-2.7 1.1-0.7 2.4-1.5c0.9-0.5 1.8-1.1 2.7-1.6 2-1 4.3-1.6 6.7-1.6q1.8 0 3.7 0.5c1.2 0.3 2.5 0.8 3.6 1.6 2.2 1.7 3.7 4.5 3.9 7.6 0.1 1.5-0.1 3-0.6 4.4-0.5 1.4-1.3 2.6-2.2 3.6-1 1.1-2.1 1.8-3.3 2.3-1.2 0.5-2.5 0.7-3.7 0.6-4.7 0-9.1 0-12.7 0-0.9 0-1.8 0-2.6-0.1-0.8-0.1-1.6-0.4-2.2-0.8-1.3-0.8-2.1-1.9-2.6-2.8-0.5-1-0.6-1.9-0.7-2.5 0-0.5 0-0.8 0-0.8z"/>
						</g>
					</g>
				</g>
			</g>
			<g id="Layer">
				<g id="Layer">
					<g id="Layer">
						<path id="Layer" class="s9" d="m627.5 431.6q0 0 0-0.6 0-0.5 0.1-1.6c0-0.7 0.1-1.6 0.2-2.7q0-1.6 0.1-3.6 0-2.1 0-4.6c-0.1-1.6-0.1-3.4-0.3-5.4-0.4-3.9-1-8.3-2.2-13-0.6-2.3-1.4-4.8-2.4-7.2-0.9-2.5-2.1-4.9-3.5-7.3-2.9-4.9-6.9-9.4-11.7-13.2-4.8-3.8-10.4-6.9-16.6-8.9-6.2-2.1-13-2.8-19.8-2.9-6.9 0-13.6 1-19.8 3.1-3.1 1.1-6.1 2.4-8.8 4-2.8 1.6-5.3 3.4-7.7 5.4-4.6 4-8.6 8.5-11.7 13.1-1.6 2.3-2.8 4.8-3.9 7.2-1.1 2.4-2 4.7-2.8 7-3 9.3-3.9 17.2-4.2 22.7-0.2 2.7-0.1 4.8-0.1 6.3q0.1 1.1 0.1 1.6 0 0.6 0 0.6 0 0 0-0.6-0.1-0.5-0.2-1.6c-0.1-1.4-0.1-3.6 0-6.3 0.3-5.5 1.2-13.5 4.2-22.8 0.7-2.3 1.6-4.7 2.7-7.1 1.1-2.4 2.3-4.8 3.9-7.2 3.2-4.7 7.1-9.2 11.8-13.2 2.4-2 4.9-3.9 7.7-5.5q4.2-2.3 8.9-4c6.2-2.1 12.9-3.1 19.8-3.1 6.9 0 13.7 0.8 20 2.9 6.2 2 11.9 5.1 16.7 9 2.4 1.9 4.6 4 6.6 6.2 2 2.3 3.7 4.6 5.1 7.1q2.2 3.6 3.6 7.4c1 2.4 1.7 4.9 2.4 7.2 1.2 4.8 1.8 9.2 2.1 13.1 0.1 1.9 0.1 3.7 0.2 5.4q0 2.5 0 4.6-0.1 2-0.1 3.6c-0.1 1.1-0.2 2-0.2 2.7q-0.1 1-0.2 1.6 0 0.6 0 0.6z"/>
					</g>
				</g>
			</g>
			<g id="Layer">
				<g id="Layer">
					<g id="Layer">
						<path id="Layer" class="s12" d=""/>
					</g>
				</g>
			</g>
			<g id="Layer">
				<g id="Layer">
					<g id="Layer">
						<path id="Layer" class="s10" d="m446.6 330.5q0 0-0.1 0-0.3 0-0.6 0-0.7 0-1.9 0.1c-1.7 0-4.1 0.1-7.1 0.1-6 0.1-14.4 0.4-23.5 0.7-9.2 0.2-17.5 0.4-23.6 0.5-3 0-5.4 0-7.1 0q-1.2 0-1.9-0.1-0.3 0-0.6 0-0.1 0-0.1 0 0 0 0.1 0 0.3 0 0.6 0 0.7-0.1 1.9-0.1c1.7 0 4.1-0.1 7.1-0.1 6-0.1 14.4-0.4 23.5-0.7 9.2-0.2 17.6-0.4 23.6-0.5 3 0 5.4 0 7.1 0q1.2 0 1.9 0.1 0.3 0 0.6 0 0.1 0 0.1 0z"/>
					</g>
				</g>
			</g>
			<g id="Layer">
				<g id="Layer">
					<g id="Layer">
						<path id="Layer" class="s9" d="m436.8 342.6c0 0.1-2.9 0.2-6.5 0.2-3.6 0-6.5-0.1-6.5-0.2 0-0.1 2.9-0.2 6.5-0.2 3.6 0 6.5 0.1 6.5 0.2z"/>
					</g>
				</g>
			</g>
			<g id="Layer">
				<g id="Layer">
					<g id="Layer">
						<path id="Layer" class="s9" d="m439.2 299.4c0 0.1-8.1 3.8-18.1 8.2-10 4.4-18.1 7.9-18.2 7.8 0-0.1 8.1-3.8 18.1-8.2 10-4.4 18.1-7.9 18.2-7.8z"/>
					</g>
				</g>
			</g>
			<g id="Layer">
				<g id="Layer">
					<g id="Layer">
						<path id="Layer" class="s9" d="m422.8 302.2c0 0.1-7.7 3.8-17.2 8.2-9.5 4.5-17.3 8-17.4 7.9 0-0.1 7.7-3.8 17.2-8.3 9.6-4.4 17.3-7.9 17.4-7.8z"/>
					</g>
				</g>
			</g>
			<g id="Layer">
				<g id="Layer">
					<g id="Layer">
						<path id="Layer" class="s9" d="m526.7 297.9c0 0.1-8.1 3.8-18.1 8.2-10 4.4-18.1 7.9-18.2 7.7 0-0.1 8.1-3.7 18.1-8.1 10-4.4 18.1-7.9 18.2-7.8z"/>
					</g>
				</g>
			</g>
			<g id="Layer">
				<g id="Layer">
					<g id="Layer">
						<path id="Layer" class="s9" d="m510.3 300.7c0 0.1-7.7 3.8-17.2 8.2-9.5 4.4-17.3 7.9-17.3 7.8-0.1-0.1 7.6-3.8 17.1-8.2 9.6-4.4 17.3-7.9 17.4-7.8z"/>
					</g>
				</g>
			</g>
			<g id="Layer">
				<g id="Layer">
					<g id="Layer">
						<path id="Layer" class="s10" d="m528.2 330.5c0 0.1-16 0.3-35.9 0.4-19.8 0.2-35.9 0.2-35.9 0 0-0.1 16.1-0.3 35.9-0.4 19.9-0.1 35.9-0.1 35.9 0z"/>
					</g>
				</g>
			</g>
			<g id="Layer">
				<g id="Layer">
					<g id="Layer">
						<path id="Layer" class="s9" d="m546.1 342c0 0.1-4.6 0.2-10.1 0.3-5.6 0-10.1 0-10.1-0.1 0-0.2 4.5-0.3 10.1-0.4 5.5 0 10.1 0 10.1 0.2z"/>
					</g>
				</g>
			</g>
			<g id="Layer">
				<g id="Layer">
					<g id="Layer">
						<path id="Layer" class="s9" d="m238.2 336q0 0-0.4 0.1-0.5 0-1.3 0.1-0.8 0.1-2 0.3c-0.7 0.2-1.6 0.3-2.6 0.5-1.9 0.4-4.2 0.9-6.7 1.7-2.5 0.7-5.3 1.7-8.1 2.8-2.8 1.2-5.4 2.6-7.7 3.9-2.3 1.3-4.3 2.6-6 3.7-0.8 0.6-1.5 1.1-2.2 1.6q-1 0.7-1.6 1.3-0.6 0.5-1 0.8-0.4 0.2-0.4 0.2 0 0 0.3-0.3 0.4-0.3 1-0.9 0.7-0.5 1.6-1.3c0.6-0.5 1.4-1 2.2-1.6 1.6-1.2 3.7-2.5 6-3.9 2.3-1.3 4.9-2.7 7.7-3.9 2.8-1.1 5.6-2.1 8.1-2.8 2.5-0.7 4.8-1.3 6.8-1.6 0.9-0.2 1.8-0.3 2.6-0.4q1.2-0.2 2-0.2 0.8-0.1 1.3-0.1 0.4 0 0.4 0z"/>
					</g>
				</g>
			</g>
			<g id="Layer">
				<g id="Layer">
					<g id="Layer">
						<path id="Layer" class="s9" d="m370.9 316.9c0 0.1-0.2-0.3-0.7-0.7-0.5-0.4-1.3-0.9-2.4-1.1-1.1-0.2-2.5 0.1-4 0.5-1.5 0.4-3.1 0.9-4.7 1.7-3.2 1.5-5.8 3.5-7.6 5.1-1.7 1.6-2.7 2.8-2.7 2.8-0.1 0 0.2-0.3 0.6-0.9 0.4-0.5 1.1-1.2 1.9-2.1 1.8-1.7 4.4-3.8 7.7-5.3 1.6-0.7 3.2-1.3 4.7-1.7 1.5-0.4 2.9-0.6 4.1-0.4 1.2 0.2 2 0.8 2.5 1.3q0.4 0.3 0.5 0.6 0.2 0.2 0.1 0.2z"/>
					</g>
				</g>
			</g>
		</g>
		<g id="Layer">
			<g id="Layer">
				<g id="Layer">
					<path id="Layer" class="s10" d="m610.3 295.6c0 0-1.1 0.4-3.2 0.4-1 0-2.3-0.2-3.7-0.5-1.4-0.3-3-0.9-4.8-1.6-1.7-0.7-3.5-1.6-5.5-2.5q-1.5-0.7-3.1-1.4c-1-0.4-2.1-0.8-3.3-1.3-4.6-1.7-9.7-3.2-15.1-4.4-11-2.5-21-3.6-28.3-3.9-1.9-0.1-3.5-0.1-5-0.1q-2.1 0-3.7 0-1.5 0-2.4 0-0.3 0-0.6 0-0.2 0-0.2 0 0 0 0.2 0 0.3 0 0.6-0.1 0.9 0 2.4-0.1 1.5 0 3.7-0.1c1.5 0.1 3.1 0 5 0.1 7.3 0.3 17.4 1.2 28.3 3.7 5.5 1.3 10.7 2.8 15.2 4.6 1.2 0.4 2.3 0.8 3.4 1.3q1.5 0.7 3 1.4c2 0.9 3.8 1.8 5.5 2.5q2.6 1.1 4.7 1.7c1.4 0.3 2.7 0.5 3.7 0.5 1 0 1.8 0 2.3-0.1q0.4 0 0.6-0.1 0.3 0 0.3 0z"/>
				</g>
			</g>
		</g>
	</g>
	<g id="Layer">
		<path id="Layer" class="s13" d="m840.1 20.2c0-8.8 7.2-16 16-16h186.9c8.8 0 16 7.2 16 16v406c0 8.9-7.2 16-16 16h-186.9c-8.8 0-16-7.1-16-16z"/>
		<path id="Layer" class="s6" d="m840.3 34.3h218.3v28.2h-218.3z"/>
		<g id="Layer">
			<g id="Layer">
				<path id="Layer" class="s8" d="m969.6 21.3h-36.6c-0.9 0-1.6-0.7-1.6-1.4 0-0.8 0.7-1.4 1.6-1.4h36.6c0.9 0 1.6 0.6 1.6 1.4 0 0.7-0.7 1.4-1.6 1.4z"/>
			</g>
		</g>
		<path id="Layer" class="s4" d="m840 408.3h218.9"/>
		<path id="Layer" class="s4" d="m951.2 432.9c-4.1 0-7.4-3.3-7.4-7.4 0-4.1 3.3-7.3 7.4-7.3 4 0 7.3 3.2 7.3 7.3 0 4.1-3.3 7.4-7.3 7.4z"/>
		<g id="Layer">
			<path id="Layer" class="s14" d="m846.5 87.5c0-2.2 1.8-4 4-4h197c2.2 0 4 1.8 4 4v45.5c0 2.2-1.8 4-4 4h-197c-2.2 0-4-1.8-4-4z"/>
			<path id="Layer" class="s9" d="m884.2 127.9c-9.9 0-18-8.1-18-18 0-10 8.1-18 18-18 10 0 18 8 18 18 0 9.9-8 18-18 18z"/>
			<path id="Layer" class="s15" d="m884.5 108.5c-2.4 0-4.3-1.9-4.3-4.3 0-2.3 1.9-4.2 4.3-4.2 2.4 0 4.3 1.9 4.3 4.2 0 2.4-1.9 4.3-4.3 4.3zm3 1.1h-0.6c-0.7 0.3-1.5 0.5-2.4 0.5q-1.3 0-2.5-0.5h-0.5c-2.5 0-4.5 2-4.5 4.5v1.4c0 0.9 0.7 1.6 1.6 1.6h11.8c0.9 0 1.6-0.7 1.6-1.6v-1.4c0-2.5-2-4.5-4.5-4.5z"/>
			<path id="Layer" class="s16" d="m913.8 103.9c0-1 0.8-1.8 1.8-1.8h49.8c1 0 1.8 0.8 1.8 1.8 0 1-0.8 1.8-1.8 1.8h-49.8c-1 0-1.8-0.8-1.8-1.8z"/>
			<path id="Layer" class="s17" d="m913.8 116.6c0-1 0.8-1.8 1.8-1.8h80.1c1 0 1.8 0.8 1.8 1.8 0 1-0.8 1.8-1.8 1.8h-80.1c-1 0-1.8-0.8-1.8-1.8z"/>
		</g>
		<g id="Layer">
			<path id="Layer" class="s14" d="m846.5 155.6c0-2.2 1.8-4 4-4h197c2.2 0 4 1.8 4 4v45.5c0 2.2-1.8 4-4 4h-197c-2.2 0-4-1.8-4-4z"/>
			<path id="Layer" class="s9" d="m884.2 195.9c-9.9 0-18-8-18-18 0-9.9 8.1-17.9 18-17.9 10 0 18 8 18 17.9 0 10-8 18-18 18z"/>
			<path id="Layer" class="s15" d="m884.5 176.6c-2.4 0-4.3-1.9-4.3-4.3 0-2.4 1.9-4.3 4.3-4.3 2.4 0 4.3 1.9 4.3 4.3 0 2.4-1.9 4.3-4.3 4.3zm3 1.1h-0.6c-0.7 0.3-1.5 0.5-2.4 0.5q-1.3 0-2.5-0.5h-0.5c-2.5 0-4.5 2-4.5 4.5v1.3c0 0.9 0.7 1.7 1.6 1.7h11.8c0.9 0 1.6-0.8 1.6-1.7v-1.3c0-2.5-2-4.5-4.5-4.5z"/>
			<path id="Layer" class="s16" d="m913.8 172c0-1 0.8-1.8 1.8-1.8h54.4c1 0 1.8 0.8 1.8 1.8 0 1-0.8 1.8-1.8 1.8h-54.4c-1 0-1.8-0.8-1.8-1.8z"/>
			<path id="Layer" class="s17" d="m913.8 184.7c0-1 0.8-1.8 1.8-1.8h67.7c1 0 1.8 0.8 1.8 1.8 0 1-0.8 1.8-1.8 1.8h-67.7c-1 0-1.8-0.8-1.8-1.8z"/>
		</g>
	</g>
	<path id="Layer" class="s4" d="m141.8 164.3h23.3"/>
	<path id="Layer" class="s4" d="m163.9 196.2h55.2"/>
	<path id="Layer" class="s4" d="m98.9 220.7h159.4"/>
	<path id="Layer" class="s4" d="m81.7 321.9c-1.1 0-2.1-1-2.1-2.2 0-1.1 1-2.1 2.1-2.1 1.2 0 2.1 1 2.1 2.1 0 1.2-0.9 2.2-2.1 2.2z"/>
	<path id="Layer" class="s15" d="m347.5 211.8h34.3"/>
	<path id="Layer" class="s15" d="m361.3 245.8h11.9"/>
	<g id="Layer">
		<g id="Layer">
			<path id="Layer" class="s0" d="m422 127.4l-68.9 33.2c-2.5 1.2-5.4 0.1-6.6-2.3l-43.4-90.2c-1.2-2.5-0.2-5.4 2.3-6.6l68.9-33.1c2.4-1.2 5.4-0.2 6.6 2.3l43.4 90.1c1.2 2.5 0.1 5.5-2.3 6.6z"/>
			<g id="Layer">
				<g id="Layer">
					<path id="Layer" fill-rule="evenodd" class="s1" d="m364 37.2l2.8 5.7-45 21.6-2.8-5.7c-1.5-3.1-0.1-6.9 3-8.4l9.4-4.6c-2-4-0.3-9 3.8-10.9 4.1-2 9-0.3 11 3.8l9.4-4.5c3.1-1.5 6.9-0.2 8.4 3zm-24.5 2.4c-0.5-0.8-1.5-1.2-2.4-0.8-0.9 0.4-1.2 1.5-0.8 2.4 0.4 0.8 1.5 1.2 2.3 0.8 0.9-0.4 1.3-1.5 0.9-2.4z"/>
				</g>
			</g>
		</g>
		<g id="Layer">
			<path id="Layer" class="s4" d="m323.7 85.9l5.1 1.8q1.5-4.5 3-9"/>
			<path id="Layer" class="s4" d="m340.7 75.9l39.7-19.2"/>
			<path id="Layer" class="s4" d="m343.1 80.8l17.9-8.6"/>
		</g>
		<g id="Layer">
			<path id="Layer" class="s4" d="m336 111.4l5.1 1.8q1.5-4.5 3-9"/>
			<path id="Layer" class="s4" d="m353 101.4l39.7-19.1"/>
			<path id="Layer" class="s4" d="m355.4 106.3q16.1-7.7 32.3-15.4"/>
		</g>
		<g id="Layer">
			<path id="Layer" class="s4" d="m348.3 136.9l5 1.8q1.6-4.5 3.1-9"/>
			<path id="Layer" class="s4" d="m365.3 126.9l39.7-19.1"/>
			<path id="Layer" class="s4" d="m367.7 131.9q7.2-3.5 14.4-7"/>
		</g>
	</g>
	<g id="Layer">
		<path id="Layer" class="s18" d="m350.2 483.1h44.2"/>
	</g>
	<path id="Layer" class="s18" d="m881.6 523.8h121.4"/>
	<path id="Layer" class="s18" d="m20.3 414.4h46.6"/>
	<path id="Layer" class="s18" d="m147.9 512.5h90.7"/>
	<path id="Layer" class="s18" d="m656.9 557.9h201.1"/>
	<g id="Layer">
		<g id="Layer">
			<path id="Layer" class="s19" d="m33.9 389.6c3.1-2.4 6.2-5 8-8.4 1.8-3.5 1.9-8.2-0.9-10.9-1.9-1.8-4.9-2.8-5.5-5.4-0.3-1.5 0.5-3.1 0.9-4.6 1.6-5.6-1.4-11.3-4.7-16-1-1.4-2.1-2.8-3.5-3.7-1.5-0.9-3.4-1.3-4.9-0.4-2.1 1.2-2.4 4.1-3.2 6.4-0.9 2.5-2.7 4.5-4 6.8-1.4 2.3-2.4 5-1.6 7.6 0.6 2.1 2.5 3.8 2.9 6 0.8 4.5-4.3 7.8-5.1 12.3-0.5 2.9 1 5.8 3.3 7.7 2.2 1.9 5.1 2.9 8 3.5 4.4 1 9.8 0.9 12.3-2.8"/>
			<g id="Layer">
				<path id="Layer" class="s8" d="m34.2 389.8c3.7-2.9 7.8-6.2 9-11 0.5-2.1 0.5-4.3-0.3-6.3-0.8-1.8-2.1-3-3.7-4-0.9-0.6-1.8-1.2-2.5-2-1.2-1.4-0.9-3-0.4-4.6 0.7-2.4 1.1-4.6 0.7-7.1-0.5-2.7-1.6-5.2-3-7.6-1.2-2-2.6-4.3-4.4-6-1.5-1.3-3.6-2.3-5.6-1.7-1.9 0.6-2.8 2.4-3.4 4.2-0.3 1-0.6 2.1-1 3.1-0.6 1.4-1.4 2.7-2.2 3.9-1.5 2.2-3 4.4-3.4 7.1-0.4 2.4 0.4 4.2 1.7 6.2 0.6 1.1 1.4 2.3 1.5 3.6 0.1 1.2-0.3 2.4-0.8 3.4-1.9 3.6-5.3 6.7-4.3 11.1 1.3 5.5 7 7.9 12 8.9 4.2 0.8 9.4 0.7 12.1-3.1 0.3-0.4-0.3-0.7-0.6-0.4-2.5 3.6-7.5 3.6-11.3 2.8-4.6-0.8-9.8-2.9-11.3-7.7-1.5-4.4 2-7.5 3.9-11.1 0.7-1.4 1.1-2.8 0.9-4.4-0.4-2.1-1.9-3.7-2.7-5.6-2.2-5.1 2.9-9.6 4.9-13.8 0.8-1.9 1-3.9 2-5.7 1.5-2.5 4.5-2.3 6.6-0.7 1.9 1.5 3.3 3.7 4.5 5.8 1.3 2.2 2.5 4.5 3.1 7.1 0.6 2.6 0.2 5-0.6 7.5-0.5 1.8-0.7 3.5 0.5 5 1.2 1.6 3.2 2.4 4.6 3.8 1.8 1.7 2.3 4.2 2.1 6.6-0.5 5.4-5.1 9.1-9.1 12.3-0.4 0.2 0.1 0.7 0.5 0.4z"/>
			</g>
		</g>
		<path id="Layer" class="s20" d="m27.1 353.6v41.8"/>
		<path id="Layer" class="s20" d="m21.3 357.5l5.8 6.5"/>
		<path id="Layer" class="s20" d="m32.8 369.3l-5.7 6.7"/>
	</g>
	<g id="Layer">
		<g id="Layer">
			<path id="Layer" class="s0" d="m705.1 532.2q-1-6.5-2-13 8.8-1.4 17.6-2.8 1.7 5.5 3.4 11.1-9.5 2.3-19 4.7z"/>
			<path id="Layer" class="s0" d="m533.8 535.7q1.7-7 3.5-14.1-9.1-2.3-18.1-4.6-1.7 8.2-3.3 16.4 8.9 1.2 17.9 2.3z"/>
			<g id="Layer">
				<g id="Layer">
					<g id="Layer">
						<path id="Layer" class="s0" d="m618.6 37.7c-0.5 11.1 9.2 20.1 17.6 20.5 8.4 0.4 12.4-7.9 12.8-19 0.5-11.1-6-20.4-14.4-20.8-8.4-0.4-15.6 8.3-16 19.3z"/>
						<path id="Layer" class="s6" d="m628.9 26c-1.7 2.5-2.1 4.6-2.1 6-0.2 3.3 1.3 4.8 0.4 7.3-0.7 1.6-1.6 1.6-3.3 3.6-3.6 4-2.6 7.6-4.2 7.9-2.7 0.6-7-10-8.5-18-0.4-2.2-0.7-4.6 0.3-7.2 1.1-2.8 3.1-4.5 4.2-5.3 0-1 0.2-2.5 1-4 3.6-6.3 15.5-5.5 18-5.4 7.1 0.5 7.1 2.2 15.4 3 3.9 0.3 5.7 0 6.2 1.1 1 1.9-2.7 5.7-4.8 7.3-7 5.6-16.8 4.8-22.6 3.7z"/>
						<path id="Layer" class="s0" d="m720.3 149.7c-8.1 24.4-15.8 50.5-22.8 78.3-4.3 16.8-8 33.2-11.3 49.1q-61.8 1-123.5 2c-1.2-2.7-2.4-5.8-3.4-9.4 0 0-1.5-5.7-2.1-12-0.4-4.5 2.8-49.1 9.7-110.1"/>
						<path id="Layer" class="s0" d="m711.8 201.8c3 2.5 29.5 23 52.4 13.4 13.4-5.6 19-18.7 27.5-39 6.1-14.8 13.4-37.4 15.4-66.9q-4.5-2.6-9-5.2-24.1 27.4-48.1 54.7c-2-10.1-6.4-26.4-17.7-43.3-24.7-36.6-62.5-46.9-72.2-49.3-11.6-2.7-47.3-10.7-83.3 9.4-48.6 27.2-54.9 83.2-55.4 89"/>
					</g>
					<path id="Layer" class="s4" d="m707.7 188.6q-6.7 26-13.5 51.9"/>
				</g>
				<path id="Layer" class="s1" d="m560.7 278.3c-2.9 10.5-6.1 24.8-8.1 42-3.4 30.3 0.2 43.1-5 68-0.5 2.5-1.8 7.2-3 11.8-4.4 16.4-8.4 28.1-9.1 30.3-3.5 10.6-9.3 34.8-19.4 94.1q10.7 0.8 21.3 1.6c17.2-29.4 31-54 40.9-72 17.2-31.4 22.3-42.1 25.7-49.6 12.2-26.9 19.7-50 24.2-65.9q7.9 13.8 15.7 28.4c6.3 11.9 10.8 20.6 15.5 30 8.2 16.1 12.3 24.3 14.1 29.1 1.5 4 2.4 7.2 3.5 10.7 3.7 12.7 5.6 22.3 6 24.7 1.8 8.8 6.2 25.6 18.3 60.9q11.3-2.1 22.5-4.2c-1-29.9-3.8-80.1-12.1-132.5-5.2-32.4-10.7-55.2-12.4-61.9-4.7-18.7-9.5-34.4-13.6-46.6q-62.5 0.5-125 1.1z"/>
				<path id="Layer" class="s0" d="m541.6 108.3c-9.2 13.2-21.5 34.9-26.1 63.8-10.9 67.7 29.1 119.5 37.3 129.6q6-2.5 12-4.9c-3.7-21-7.3-58.8 6.4-101.9 7.1-22.3 16.9-39.9 25.5-52.9"/>
			</g>
			<g id="Layer">
				<path id="Layer" class="s0" d="m545.4 546.6c0 0.9-0.3 1.8-0.3 1.8 0 0-0.1 0.4-0.2 0.7-0.4 0.9-13.5 0.8-31.4-0.1-0.3-1.7-0.5-3.8-0.5-6.3 0.1-2.9 0.5-5.1 0.7-6.3 0.5-2.5 1.3-4.6 2-6.4q9.9 0.4 19.9 0.9c1.8 5.6 4.2 7.8 6.1 8.8 0.5 0.2 4.3 0.4 3.7 6.9z"/>
			</g>
			<path id="Layer" class="s0" d="m702.1 536.9c-0.1 2.6-0.1 5 0.1 7.1 4.1 0.6 8.3 1.3 11.9 1.8 8.3 1.3 8 1.2 8.9 1.4 7 0.9 13.1 1.5 19.6 1.7 9.5 0.3 10.6-0.6 11-1.4 1.1-2.2-3.7-6.2-4.2-6.6-3.7-3.1-7.4-3.8-10.3-4.8-3.9-1.3-9.3-4-15-10.4q-10.2 0.7-20.4 1.4c-0.7 2.8-1.4 6-1.6 9.8z"/>
		</g>
		<g id="Layer">
			<path id="Layer" class="s0" d="m564.5 296.9c1.7 0.8 3.8 1.8 5.9 3.3 5.2 3.6 8.1 8.1 9.6 10.9 0 0 0.7 2.7-2.3 2.1l-5.6-2.8c0.7 1.2 5.4 8.8 3.3 13.9-0.2 0.5-0.5 1.4-1.5 2.2-2.6 2.2-6.8 0.8-7.4 0.6-4.2-1.4-6.3-5.4-8.6-10.2-1.7-3.2-3.8-8.4-4.8-15.3"/>
			<path id="Layer" class="s4" d="m564 317.8l4.2 5.8"/>
			<path id="Layer" class="s4" d="m568.2 315.9l4 6.7"/>
			<path id="Layer" class="s4" d="m561.4 298l-4.6 2.7"/>
		</g>
		<g id="Layer">
			<path id="Layer" class="s0" d="m797.9 104.6c-0.2-1.7-0.3-3.7 0-5.9 0.7-5.5 2.9-9.6 4.5-12 0 0 1.8-1.6 2.6 0.9l0.1 5.5c0.6-1 4.6-7.7 9.4-8.3 0.4 0 1.3-0.1 2.3 0.3 2.8 1.1 3.5 4.9 3.6 5.4 0.6 3.9-1.6 7.2-4.3 11-1.9 2.6-5 6.3-9.9 10"/>
			<path id="Layer" class="s4" d="m814.1 96.3l2.8-5.6"/>
			<path id="Layer" class="s4" d="m811 93.9l3.5-5.9"/>
			<path id="Layer" class="s4" d="m800 106.6l3.9 2.4"/>
		</g>
		<path id="Layer" class="s4" d="m728.5 537.2c0.9-0.2 2.6-0.6 4.1-2 0.7-0.6 1.1-1.3 1.4-1.8"/>
		<path id="Layer" class="s4" d="m734.3 539.7c0.7-0.1 2.2-0.6 3.7-1.8 0.6-0.6 1-1.1 1.3-1.6"/>
		<path id="Layer" class="s4" d="m522.1 542c1.3 0.4 3.1 0.7 5.1 0.7 1.8-0.1 3.4-0.3 4.7-0.7"/>
		<path id="Layer" class="s4" d="m520.9 536.9c1.6 0.4 3.8 0.8 6.2 0.7 2.3 0 4.3-0.3 5.8-0.7"/>
	</g>
	<g id="Layer">
		<g id="Layer">
			<path id="Layer" class="s0" d="m137.6 32.2c0 0-4.3 4.5-17.6 4.5-3 0-6.4-0.2-10.3-0.8-22.4-3.1-31.9-13.8-31.9-13.8 0 0-9.6 10.7-31.9 13.8-3.9 0.6-7.3 0.8-10.3 0.8-13.3 0-17.6-4.5-17.6-4.5 0 0-13 82.9 59.8 128.4 72.7-45.5 59.8-128.4 59.8-128.4z"/>
			<path id="Layer" class="s1" d="m78.3 109.7c-13 0-23.4-10.5-23.4-23.4 0-13 10.4-23.4 23.4-23.4 12.9 0 23.4 10.4 23.4 23.4 0 12.9-10.5 23.4-23.4 23.4z"/>
		</g>
		<path id="Layer" class="s21" d="m68.8 86.7l6.9 6.2c0.4 0.5 1.2 0.4 1.6 0l11.5-12.9"/>
	</g>
	<g id="Layer">
	</g>
	<g id="Layer">
	</g>
	<g id="Layer">
	</g>
	<g id="Layer">
	</g>
	<g id="Layer">
	</g>
	<g id="Layer">
	</g>
	<g id="Layer">
	</g>
	<g id="Layer">
	</g>
	<g id="Layer">
	</g>
	<g id="Layer">
	</g>
	<g id="Layer">
	</g>
	<g id="Layer">
	</g>
	<g id="Layer">
	</g>
	<g id="Layer">
	</g>
	<g id="Layer">
	</g>
</svg>