<svg xmlns="http://www.w3.org/2000/svg" width="21" height="21" fill="none" viewBox="0 0 21 21">
  <path fill="#6F7C87" d="M10.5 10.318c.486 0 .9-.17 1.24-.51.34-.341.51-.754.51-1.24s-.17-.9-.51-1.24a1.688 1.688 0 0 0-1.24-.51c-.486 0-.9.17-1.24.51-.34.34-.51.754-.51 1.24s.17.899.51 1.24c.34.34.754.51 1.24.51Zm0 5.77c1.639-1.513 2.847-2.881 3.625-4.103s1.167-2.306 1.167-3.25c0-1.486-.458-2.684-1.375-3.594C13 4.23 11.861 3.777 10.5 3.777c-1.361 0-2.5.454-3.417 1.364-.917.91-1.375 2.108-1.375 3.594 0 .944.389 2.028 1.167 3.25s1.986 2.59 3.625 4.104Zm0 2.626c-2.278-1.958-3.98-3.757-5.104-5.396-1.125-1.639-1.688-3.167-1.688-4.583 0-2.139.68-3.833 2.042-5.083 1.361-1.25 2.945-1.875 4.75-1.875 1.805 0 3.389.625 4.75 1.875 1.361 1.25 2.042 2.944 2.042 5.083 0 1.416-.563 2.944-1.688 4.583-1.125 1.639-2.826 3.438-5.104 5.396Z" opacity=".6"/>
</svg>
