<svg xmlns="http://www.w3.org/2000/svg" width="24" height="24" fill="none" viewBox="0 0 24 24">
  <path fill="#6F7C87" d="M2 19v-2h10v2H2Zm0-5v-2h5v2H2Zm0-5V7h5v2H2Zm18.6 10-3.85-3.85c-.4.283-.837.496-1.312.637A5 5 0 0 1 14 16c-1.383 0-2.562-.488-3.537-1.463C9.488 13.562 9 12.383 9 11s.488-2.563 1.463-3.538C11.438 6.487 12.617 6 14 6s2.563.487 3.538 1.462C18.513 8.437 19 9.617 19 11c0 .483-.07.963-.212 1.438a4.471 4.471 0 0 1-.638 1.312L22 17.6 20.6 19ZM14 14c.833 0 1.542-.292 2.125-.875A2.893 2.893 0 0 0 17 11c0-.833-.292-1.542-.875-2.125A2.893 2.893 0 0 0 14 8c-.833 0-1.542.292-2.125.875A2.893 2.893 0 0 0 11 11c0 .833.292 1.542.875 2.125A2.893 2.893 0 0 0 14 14Z"/>
</svg>
